<svg width="357" height="50" viewBox="0 0 357 50" fill="none" xmlns="http://www.w3.org/2000/svg">
<path fill-rule="evenodd" clip-rule="evenodd" d="M294.183 37.1682C294.385 37.1682 294.518 37.0336 294.518 36.8304V29.1731C294.518 29.0398 294.587 28.9712 294.721 28.9712H298.784C303.722 28.9712 306.744 25.9357 306.744 21.6194C306.744 17.2358 303.754 14.2333 298.784 14.2333H289.918C289.717 14.2333 289.583 14.368 289.583 14.5712V36.8304C289.583 37.0336 289.717 37.1682 289.918 37.1682H294.183ZM298.482 24.6885H294.721C294.587 24.6885 294.518 24.6212 294.518 24.4872V18.7192C294.518 18.584 294.587 18.5174 294.721 18.5174H298.482C300.565 18.5174 301.806 19.7632 301.806 21.6194C301.806 23.4743 300.565 24.6885 298.482 24.6885Z" fill="black"/>
<path fill-rule="evenodd" clip-rule="evenodd" d="M203.886 14.4082C203.039 14.4412 203.039 14.9737 203.039 15.2602V36.2576C203.072 37.1075 203.601 37.1075 203.886 37.1075H224.776C225.644 37.0719 225.644 36.5427 225.644 36.2576V15.2602C225.611 14.4082 225.08 14.4082 224.795 14.4082H203.886ZM224.795 40.6333H203.886C200.688 40.6333 199.529 38.0168 199.529 36.2576V15.2602C199.529 12.0491 202.134 10.8837 203.886 10.8837H224.795C227.995 10.8837 229.154 13.5002 229.154 15.2602V36.2576C229.154 39.4686 226.548 40.6333 224.795 40.6333Z" fill="black"/>
<path fill-rule="evenodd" clip-rule="evenodd" d="M264.05 37.1471C264.252 37.1471 264.387 37.0125 264.387 36.8106V21.1608C264.387 20.9563 264.252 20.8216 264.05 20.8216H260.021C259.818 20.8216 259.684 20.9563 259.684 21.1608V36.8106C259.684 37.0125 259.818 37.1471 260.021 37.1471H264.05Z" fill="black"/>
<path fill-rule="evenodd" clip-rule="evenodd" d="M264.05 18.2243C264.252 18.2243 264.387 18.0896 264.387 17.8877V14.55C264.387 14.3468 264.252 14.2122 264.05 14.2122H260.021C259.818 14.2122 259.684 14.3468 259.684 14.55V17.8877C259.684 18.0896 259.818 18.2243 260.021 18.2243H264.05Z" fill="black"/>
<path fill-rule="evenodd" clip-rule="evenodd" d="M244.139 37.1471C244.341 37.1471 244.474 37.0124 244.474 36.8105V29.1533C244.474 29.0186 244.543 28.9499 244.677 28.9499H248.74C253.678 28.9499 256.7 25.9145 256.7 21.5976C256.7 17.2146 253.711 14.2121 248.74 14.2121H239.875C239.673 14.2121 239.54 14.3468 239.54 14.55V36.8105C239.54 37.0124 239.673 37.1471 239.875 37.1471H244.139ZM248.436 24.6673H244.677C244.543 24.6673 244.474 24.6007 244.474 24.4661V18.6981C244.474 18.5628 244.543 18.4961 244.677 18.4961H248.436C250.522 18.4961 251.763 19.742 251.763 21.5976C251.763 23.4545 250.522 24.6673 248.436 24.6673Z" fill="black"/>
<path fill-rule="evenodd" clip-rule="evenodd" d="M275.87 37.349C276.07 37.349 276.204 37.2143 276.204 37.0124V33.6721C276.204 33.4688 276.07 33.3349 275.87 33.3349H275.164C274.19 33.3349 273.753 32.8968 273.753 31.7848V14.55C273.753 14.3468 273.62 14.2121 273.418 14.2121H269.386C269.186 14.2121 269.053 14.3468 269.053 14.55V32.1544C269.053 35.7627 270.496 37.349 274.089 37.349H275.87Z" fill="black"/>
<path fill-rule="evenodd" clip-rule="evenodd" d="M285.778 37.349C285.98 37.349 286.114 37.2143 286.114 37.0124V33.6721C286.114 33.4688 285.98 33.3349 285.778 33.3349H285.073C284.097 33.3349 283.662 32.8968 283.662 31.7848V14.55C283.662 14.3468 283.527 14.2121 283.326 14.2121H279.297C279.093 14.2121 278.96 14.3468 278.96 14.55V32.1544C278.96 35.7627 280.407 37.349 283.998 37.349H285.778Z" fill="black"/>
<path fill-rule="evenodd" clip-rule="evenodd" d="M317.579 31.7387C317.579 33.255 316.572 33.9967 314.558 33.9967C313.011 33.9967 312.206 33.4227 312.206 32.2765C312.206 30.9956 313.113 30.4215 315.093 30.4215H317.377C317.511 30.4215 317.579 30.4888 317.579 30.6241V31.7387ZM314.825 20.4718C312.139 20.4718 310.158 21.1145 308.78 22.0911C308.612 22.1934 308.579 22.3604 308.679 22.5636L310.191 25.2282C310.29 25.3958 310.459 25.4288 310.627 25.2948C311.4 24.7207 312.608 24.2496 314.254 24.2496C316.841 24.2496 317.579 24.9583 317.579 26.4767V27.0825C317.579 27.2191 317.511 27.2857 317.377 27.2857H314.489C310.459 27.2857 307.74 28.9374 307.74 32.5463C307.74 36.02 310.257 37.539 313.145 37.539C315.364 37.539 316.773 36.8302 317.613 35.7507H317.647V36.8302C317.647 37.0335 317.781 37.1681 317.982 37.1681H321.709C321.912 37.1681 322.046 37.0335 322.046 36.8302V26.3751C322.046 22.2937 320.132 20.4718 314.825 20.4718Z" fill="black"/>
<path fill-rule="evenodd" clip-rule="evenodd" d="M332.6 37.539C335.39 37.539 337.57 36.2575 338.746 34.4679C338.85 34.2996 338.85 34.1314 338.68 33.9968L335.758 32.0752C335.556 31.9399 335.39 31.9723 335.253 32.1425C334.549 33.1191 333.845 33.5592 332.668 33.5592C331.425 33.5592 330.519 32.9852 330.15 31.8059C329.914 31.1302 329.847 30.3543 329.847 29.0067C329.847 27.6559 329.914 26.8806 330.15 26.2062C330.519 25.025 331.425 24.4535 332.668 24.4535C333.845 24.4535 334.549 24.8911 335.253 25.8684C335.39 26.0373 335.556 26.0702 335.758 25.9356L338.68 24.0134C338.85 23.8794 338.85 23.7092 338.746 23.5415C337.57 21.7559 335.39 20.4718 332.6 20.4718C329.174 20.4718 326.555 22.0562 325.581 25.0922C325.246 26.0702 325.077 27.2857 325.077 29.0067C325.077 30.7251 325.246 31.9399 325.581 32.9178C326.555 35.9533 329.174 37.539 332.6 37.539Z" fill="black"/>
<path fill-rule="evenodd" clip-rule="evenodd" d="M356.787 37.1682C356.987 37.1682 357.055 36.9644 356.954 36.8304L351.279 26.9479L356.248 21.1813C356.384 21.0473 356.316 20.8428 356.114 20.8428H351.815C351.548 20.8428 351.379 20.9444 351.177 21.1813L346.509 26.9479V14.5712C346.509 14.368 346.374 14.2333 346.174 14.2333H342.144C341.941 14.2333 341.807 14.368 341.807 14.5712V36.8304C341.807 37.0336 341.941 37.1682 342.144 37.1682H346.174C346.374 37.1682 346.509 37.0336 346.509 36.8304V32.3438L348.188 30.2533L351.815 36.8304C351.95 37.0653 352.083 37.1682 352.32 37.1682H356.787Z" fill="black"/>
<path d="M163.127 10.7232C153.528 10.7232 146.843 17.2918 146.843 27.0275C146.843 37.3887 153.783 43.3317 163.44 43.3317C165.825 43.3317 168.034 43.0189 169.696 42.4715V39.7542C168.484 40.282 166.001 40.6143 163.577 40.6143C155.64 40.6143 149.892 35.7661 149.892 27.1448C149.892 19.0904 155.327 13.4211 162.912 13.4211C170.556 13.4211 175.776 18.1325 175.776 25.2485C175.776 29.9794 174.192 32.6773 172.022 32.6773C170.615 32.6773 169.93 31.7975 169.93 30.5073V19.4032H166.627V21.7687H166.412C165.669 20.0874 163.811 19.0122 161.72 19.0122C157.751 19.0122 154.995 22.2965 154.995 27.047C154.995 32.0126 157.732 35.336 161.798 35.336C164.085 35.336 165.845 34.2412 166.666 32.2667H166.861C167.174 34.2021 169.07 35.4728 171.358 35.4728C176.01 35.4728 178.825 31.387 178.825 25.1507C178.825 16.5099 172.276 10.7232 163.127 10.7232ZM162.443 22.0033C164.906 22.0033 166.47 23.9973 166.47 27.1448C166.47 30.2922 164.887 32.2863 162.423 32.2863C160.038 32.2863 158.592 30.3313 158.592 27.1448C158.592 23.9191 160.038 22.0033 162.443 22.0033Z" fill="#B39F73"/>
<path d="M16.587 12.7757H2.43326V14.001C5.94 14.001 6.44699 14.7192 6.44699 18.9442V31.9571C6.44699 36.1821 5.94 36.9004 2.43326 36.9004V38.1256H15.7842V36.9004C12.2775 36.9004 11.7282 36.1821 11.7282 31.9571V27.0139H16.587C21.8259 27.0139 25.1214 23.8452 25.1214 19.9159C25.1214 15.9867 21.8259 12.7757 16.587 12.7757ZM14.052 25.1127H11.7282V14.677H14.052C17.7277 14.677 19.4599 17.0429 19.4599 19.9159C19.4599 22.7889 17.7277 25.1127 14.052 25.1127ZM41.2397 26.8027C41.2397 25.2817 40.3524 23.3382 37.4794 23.3382C35.7894 23.3382 33.7614 24.6902 32.8742 26.3802C32.7474 25.4929 32.3672 23.7607 32.1559 23.3382L24.889 24.3944V25.6197C27.7197 25.6197 28.2267 26.3379 28.2267 30.5629V31.9571C28.2267 36.1821 27.7197 36.9004 24.889 36.9004V38.1256H36.2119V36.9004C33.3812 36.9004 32.8742 36.1821 32.8742 31.9571V31.0699C32.8742 27.6477 34.3952 26.5492 35.5782 26.5492C37.9019 26.5492 36.8034 29.3376 38.9582 29.3376C40.5214 29.3376 41.2397 27.8589 41.2397 26.8027ZM58.8493 37.0271L58.2578 35.8864C57.9198 36.0976 57.4973 36.3934 56.9903 36.3934C56.4411 36.3934 56.1031 35.8441 56.1031 34.7879V29.0841C56.1031 25.0704 54.1174 23.3382 49.4276 23.3382C46.3434 23.3382 43.2591 24.6057 43.2591 26.7182C43.2591 27.8589 44.0196 28.5349 44.9491 28.5349C45.8786 28.5349 46.6391 27.8589 46.6391 26.7182C46.6391 25.6197 47.9489 25.0704 48.9206 25.0704C50.6529 25.0704 51.6669 25.9577 51.6669 29.0841V29.1264C46.1321 29.9714 42.2874 31.5346 42.2874 35.1259C42.2874 37.3651 44.3154 38.6749 46.3434 38.6749C48.2446 38.6749 49.3009 37.9989 51.6669 36.1399C51.9204 37.6609 52.9766 38.5904 54.8778 38.5904C55.8918 38.5904 57.6241 37.9566 58.8493 37.0271ZM51.6669 34.4076C50.2304 35.6751 48.8361 36.3089 48.1179 36.3089C47.2729 36.3089 46.4701 35.8864 46.4701 34.6189C46.4701 32.5064 48.4136 31.6614 51.6669 30.8164V34.4076ZM67.7669 25.0282C68.5274 25.0282 69.2879 25.4929 69.2879 26.8449C69.2879 27.7744 70.0483 28.5349 70.9356 28.5349C72.3721 28.5349 72.7946 27.4364 72.7946 26.7604C72.7946 25.1549 70.9356 23.3382 67.4289 23.3382C63.2461 23.3382 59.6126 26.4647 59.6126 31.4501C59.6126 35.6751 62.8659 38.8439 67.5556 38.8439C70.0483 38.8439 72.4566 37.7876 74.0621 36.0554L73.3438 34.8301C71.8228 36.1399 70.2596 36.7736 69.0766 36.7736C66.3726 36.7736 64.7671 34.8301 64.7671 31.4501C64.7671 27.5632 65.5276 25.0282 67.7669 25.0282ZM76.7265 25.9154V33.5626C76.7265 36.8159 78.5855 38.7171 81.6697 38.7171C83.1062 38.7171 85.5144 37.5764 86.8664 36.3089L86.2749 35.0836C85.0919 35.9286 84.2047 36.3089 83.4019 36.3089C82.0922 36.3089 81.5007 35.2526 81.5007 33.2669V25.9154H85.1764V24.0564H81.5007V18.7329H80.0642C79.8107 21.4792 77.0645 23.9719 74.5295 24.5212V25.9154H76.7265ZM100.077 38.1256V36.9004C97.2466 36.9004 96.7396 36.1821 96.7396 31.9571V23.3382L88.6277 24.3944V25.6197C91.4584 25.6197 91.9654 26.3379 91.9654 30.5629V31.9571C91.9654 36.1821 91.4584 36.9004 88.6277 36.9004V38.1256H100.077ZM97.0354 16.2402C97.0354 14.7615 95.8101 13.5362 94.3314 13.5362C92.8526 13.5362 91.7119 14.7615 91.7119 16.2402C91.7119 17.7189 92.8526 18.9864 94.3314 18.9864C95.8101 18.9864 97.0354 17.7189 97.0354 16.2402ZM109.347 25.0282C110.107 25.0282 110.868 25.4929 110.868 26.8449C110.868 27.7744 111.628 28.5349 112.516 28.5349C113.952 28.5349 114.375 27.4364 114.375 26.7604C114.375 25.1549 112.516 23.3382 109.009 23.3382C104.826 23.3382 101.193 26.4647 101.193 31.4501C101.193 35.6751 104.446 38.8439 109.136 38.8439C111.628 38.8439 114.037 37.7876 115.642 36.0554L114.924 34.8301C113.403 36.1399 111.84 36.7736 110.657 36.7736C107.953 36.7736 106.347 34.8301 106.347 31.4501C106.347 27.5632 107.108 25.0282 109.347 25.0282ZM122.013 28.4504C122.436 26.4224 123.492 25.3662 125.013 25.3662C126.872 25.3662 127.759 26.7182 127.633 28.4504H122.013ZM121.718 30.3094H130.886C131.815 27.3942 129.407 23.3382 124.802 23.3382C120.366 23.3382 116.648 26.5914 116.648 31.0699C116.648 35.3371 119.69 38.8439 125.182 38.8439C127.548 38.8439 130.125 37.6186 131.604 36.0554L130.886 34.8301C129.576 35.9709 127.759 36.6891 125.858 36.5624C123.365 36.3934 121.38 34.6189 121.718 30.3094Z" fill="black"/>
</svg>
