<svg width="106" height="38" viewBox="0 0 106 38" fill="none" xmlns="http://www.w3.org/2000/svg">
<path d="M12.783 7.73896H1.47062V8.71825C4.2734 8.71825 4.67862 9.29231 4.67862 12.6691V23.0698C4.67862 26.4467 4.2734 27.0207 1.47062 27.0207V28H12.1414V27.0207C9.33866 27.0207 8.89967 26.4467 8.89967 23.0698V19.1189H12.783C16.9703 19.1189 19.6042 16.5863 19.6042 13.4458C19.6042 10.3054 16.9703 7.73896 12.783 7.73896ZM10.7569 17.5993H8.89967V9.25854H10.7569C13.6948 9.25854 15.0793 11.1496 15.0793 13.4458C15.0793 15.7421 13.6948 17.5993 10.7569 17.5993ZM32.4868 18.9501C32.4868 17.7344 31.7777 16.1811 29.4814 16.1811C28.1307 16.1811 26.5098 17.2617 25.8007 18.6124C25.6994 17.9033 25.3955 16.5187 25.2266 16.1811L19.4185 17.0253V18.0046C21.681 18.0046 22.0862 18.5786 22.0862 21.9555V23.0698C22.0862 26.4467 21.681 27.0207 19.4185 27.0207V28H28.4684V27.0207C26.2059 27.0207 25.8007 26.4467 25.8007 23.0698V22.3607C25.8007 19.6254 27.0164 18.7475 27.9619 18.7475C29.8191 18.7475 28.9412 20.9762 30.6633 20.9762C31.9128 20.9762 32.4868 19.7943 32.4868 18.9501ZM46.5615 27.122L46.0887 26.2103C45.8186 26.3791 45.4809 26.6155 45.0757 26.6155C44.6367 26.6155 44.3665 26.1765 44.3665 25.3323V20.7736C44.3665 17.5656 42.7794 16.1811 39.0311 16.1811C36.566 16.1811 34.1009 17.1941 34.1009 18.8825C34.1009 19.7943 34.7088 20.3346 35.4517 20.3346C36.1946 20.3346 36.8024 19.7943 36.8024 18.8825C36.8024 18.0046 37.8492 17.5656 38.6259 17.5656C40.0104 17.5656 40.8208 18.2747 40.8208 20.7736V20.8073C36.3972 21.4827 33.3243 22.7321 33.3243 25.6024C33.3243 27.3922 34.9451 28.439 36.566 28.439C38.0856 28.439 38.9298 27.8987 40.8208 26.4129C41.0234 27.6285 41.8677 28.3715 43.3872 28.3715C44.1977 28.3715 45.5822 27.8649 46.5615 27.122ZM40.8208 25.0284C39.6727 26.0414 38.5584 26.548 37.9843 26.548C37.3089 26.548 36.6673 26.2103 36.6673 25.1972C36.6673 23.5088 38.2207 22.8334 40.8208 22.1581V25.0284ZM53.6888 17.5318C54.2967 17.5318 54.9045 17.9033 54.9045 18.9838C54.9045 19.7267 55.5123 20.3346 56.2215 20.3346C57.3696 20.3346 57.7073 19.4566 57.7073 18.9163C57.7073 17.6331 56.2215 16.1811 53.4187 16.1811C50.0756 16.1811 47.1715 18.6799 47.1715 22.6646C47.1715 26.0414 49.7717 28.5741 53.52 28.5741C55.5123 28.5741 57.4371 27.7299 58.7203 26.3453L58.1463 25.3661C56.9306 26.4129 55.6812 26.9194 54.7357 26.9194C52.5745 26.9194 51.2913 25.3661 51.2913 22.6646C51.2913 19.5579 51.8991 17.5318 53.6888 17.5318ZM60.8499 18.2409V24.353C60.8499 26.9532 62.3357 28.4728 64.8008 28.4728C65.9489 28.4728 67.8737 27.561 68.9543 26.548L68.4815 25.5687C67.536 26.244 66.8269 26.548 66.1853 26.548C65.1385 26.548 64.6657 25.7037 64.6657 24.1166V18.2409H67.6035V16.7551H64.6657V12.5003H63.5176C63.315 14.6953 61.12 16.6876 59.0939 17.1266V18.2409H60.8499ZM79.5132 28V27.0207C77.2507 27.0207 76.8455 26.4467 76.8455 23.0698V16.1811L70.3619 17.0253V18.0046C72.6244 18.0046 73.0297 18.5786 73.0297 21.9555V23.0698C73.0297 26.4467 72.6244 27.0207 70.3619 27.0207V28H79.5132ZM77.0819 10.508C77.0819 9.32608 76.1026 8.3468 74.9207 8.3468C73.7388 8.3468 72.827 9.32608 72.827 10.508C72.827 11.6899 73.7388 12.7029 74.9207 12.7029C76.1026 12.7029 77.0819 11.6899 77.0819 10.508ZM86.922 17.5318C87.5298 17.5318 88.1376 17.9033 88.1376 18.9838C88.1376 19.7267 88.7455 20.3346 89.4546 20.3346C90.6027 20.3346 90.9404 19.4566 90.9404 18.9163C90.9404 17.6331 89.4546 16.1811 86.6518 16.1811C83.3087 16.1811 80.4047 18.6799 80.4047 22.6646C80.4047 26.0414 83.0048 28.5741 86.7531 28.5741C88.7455 28.5741 90.6703 27.7299 91.9535 26.3453L91.3794 25.3661C90.1637 26.4129 88.9143 26.9194 87.9688 26.9194C85.8076 26.9194 84.5244 25.3661 84.5244 22.6646C84.5244 19.5579 85.1322 17.5318 86.922 17.5318ZM97.0457 20.267C97.3834 18.6462 98.2276 17.8019 99.4433 17.8019C100.929 17.8019 101.638 18.8825 101.537 20.267H97.0457ZM96.8093 21.7528H104.137C104.88 19.4228 102.955 16.1811 99.2744 16.1811C95.7288 16.1811 92.7571 18.7812 92.7571 22.3607C92.7571 25.7713 95.1885 28.5741 99.5784 28.5741C101.469 28.5741 103.529 27.5948 104.711 26.3453L104.137 25.3661C103.09 26.2778 101.638 26.8519 100.119 26.7506C98.1263 26.6155 96.5392 25.1972 96.8093 21.7528Z" fill="black"/>
</svg>
