<svg width="314" height="39" viewBox="0 0 314 39" fill="none" xmlns="http://www.w3.org/2000/svg">
<path fill-rule="evenodd" clip-rule="evenodd" d="M261.653 29.008C261.814 29.008 261.921 28.9004 261.921 28.738V22.6178C261.921 22.5113 261.976 22.4565 262.083 22.4565H265.331C269.277 22.4565 271.693 20.0303 271.693 16.5805C271.693 13.0769 269.302 10.6772 265.331 10.6772H258.245C258.083 10.6772 257.976 10.7848 257.976 10.9472V28.738C257.976 28.9004 258.083 29.008 258.245 29.008H261.653ZM265.089 19.0335H262.083C261.976 19.0335 261.921 18.9797 261.921 18.8727V14.2626C261.921 14.1544 261.976 14.1012 262.083 14.1012H265.089C266.754 14.1012 267.746 15.0969 267.746 16.5805C267.746 18.0631 266.754 19.0335 265.089 19.0335Z" fill="black"/>
<path fill-rule="evenodd" clip-rule="evenodd" d="M189.483 10.8169C188.806 10.8433 188.806 11.2689 188.806 11.4979V28.2802C188.832 28.9595 189.255 28.9595 189.483 28.9595H206.179C206.873 28.931 206.873 28.508 206.873 28.2802V11.4979C206.846 10.8169 206.423 10.8169 206.195 10.8169H189.483ZM206.195 31.7775H189.483C186.926 31.7775 186 29.6863 186 28.2802V11.4979C186 8.93142 188.082 8 189.483 8H206.195C208.752 8 209.678 10.0912 209.678 11.4979V28.2802C209.678 30.8466 207.595 31.7775 206.195 31.7775Z" fill="black"/>
<path fill-rule="evenodd" clip-rule="evenodd" d="M237.569 28.9911C237.73 28.9911 237.839 28.8835 237.839 28.7221V16.214C237.839 16.0505 237.73 15.9429 237.569 15.9429H234.349C234.187 15.9429 234.08 16.0505 234.08 16.214V28.7221C234.08 28.8835 234.187 28.9911 234.349 28.9911H237.569Z" fill="black"/>
<path fill-rule="evenodd" clip-rule="evenodd" d="M237.569 13.8669C237.73 13.8669 237.839 13.7593 237.839 13.5979V10.9303C237.839 10.7679 237.73 10.6602 237.569 10.6602H234.349C234.187 10.6602 234.08 10.7679 234.08 10.9303V13.5979C234.08 13.7593 234.187 13.8669 234.349 13.8669H237.569Z" fill="black"/>
<path fill-rule="evenodd" clip-rule="evenodd" d="M221.656 28.9911C221.817 28.9911 221.923 28.8835 221.923 28.7221V22.602C221.923 22.4944 221.978 22.4395 222.086 22.4395H225.332C229.28 22.4395 231.695 20.0134 231.695 16.5631C231.695 13.06 229.306 10.6602 225.332 10.6602H218.248C218.086 10.6602 217.979 10.7678 217.979 10.9303V28.7221C217.979 28.8835 218.086 28.9911 218.248 28.9911H221.656ZM225.09 19.0166H222.086C221.978 19.0166 221.923 18.9633 221.923 18.8558V14.2457C221.923 14.1375 221.978 14.0842 222.086 14.0842H225.09C226.757 14.0842 227.749 15.08 227.749 16.5631C227.749 18.0472 226.757 19.0166 225.09 19.0166Z" fill="black"/>
<path fill-rule="evenodd" clip-rule="evenodd" d="M247.016 29.1525C247.176 29.1525 247.283 29.0448 247.283 28.8835V26.2137C247.283 26.0512 247.176 25.9442 247.016 25.9442H246.452C245.674 25.9442 245.325 25.594 245.325 24.7053V10.9303C245.325 10.7678 245.218 10.6602 245.056 10.6602H241.834C241.675 10.6602 241.568 10.7678 241.568 10.9303V25.0006C241.568 27.8846 242.721 29.1525 245.593 29.1525H247.016Z" fill="black"/>
<path fill-rule="evenodd" clip-rule="evenodd" d="M254.935 29.1525C255.097 29.1525 255.204 29.0448 255.204 28.8835V26.2137C255.204 26.0512 255.097 25.9442 254.935 25.9442H254.372C253.592 25.9442 253.244 25.594 253.244 24.7053V10.9303C253.244 10.7678 253.136 10.6602 252.975 10.6602H249.755C249.593 10.6602 249.486 10.7678 249.486 10.9303V25.0006C249.486 27.8846 250.643 29.1525 253.513 29.1525H254.935Z" fill="black"/>
<path fill-rule="evenodd" clip-rule="evenodd" d="M280.352 24.6684C280.352 25.8803 279.548 26.4732 277.938 26.4732C276.701 26.4732 276.058 26.0144 276.058 25.0982C276.058 24.0745 276.783 23.6157 278.366 23.6157H280.191C280.298 23.6157 280.352 23.6694 280.352 23.7775V24.6684ZM278.151 15.6633C276.004 15.6633 274.421 16.177 273.32 16.9576C273.186 17.0393 273.159 17.1728 273.239 17.3352L274.448 19.4649C274.527 19.5989 274.662 19.6252 274.796 19.5181C275.414 19.0593 276.379 18.6827 277.695 18.6827C279.763 18.6827 280.352 19.2492 280.352 20.4628V20.947C280.352 21.0561 280.298 21.1093 280.191 21.1093H277.883C274.662 21.1093 272.489 22.4295 272.489 25.3139C272.489 28.0902 274.5 29.3043 276.808 29.3043C278.582 29.3043 279.708 28.7379 280.38 27.8751H280.407V28.7379C280.407 28.9003 280.514 29.0079 280.675 29.0079H283.654C283.816 29.0079 283.923 28.9003 283.923 28.7379V20.3815C283.923 17.1195 282.393 15.6633 278.151 15.6633Z" fill="black"/>
<path fill-rule="evenodd" clip-rule="evenodd" d="M292.359 29.3044C294.588 29.3044 296.331 28.2801 297.27 26.8497C297.353 26.7153 297.353 26.5808 297.218 26.4732L294.882 24.9374C294.72 24.8292 294.588 24.8551 294.479 24.9912C293.916 25.7717 293.353 26.1235 292.412 26.1235C291.419 26.1235 290.695 25.6647 290.4 24.7221C290.211 24.1821 290.158 23.5619 290.158 22.4849C290.158 21.4052 290.211 20.7855 290.4 20.2465C290.695 19.3024 291.419 18.8457 292.412 18.8457C293.353 18.8457 293.916 19.1954 294.479 19.9765C294.588 20.1115 294.72 20.1379 294.882 20.0303L297.218 18.4939C297.353 18.3869 297.353 18.2508 297.27 18.1168C296.331 16.6896 294.588 15.6633 292.359 15.6633C289.62 15.6633 287.526 16.9296 286.749 19.3562C286.48 20.1379 286.345 21.1094 286.345 22.4849C286.345 23.8583 286.48 24.8292 286.749 25.6109C287.526 28.037 289.62 29.3044 292.359 29.3044Z" fill="black"/>
<path fill-rule="evenodd" clip-rule="evenodd" d="M311.69 29.008C311.85 29.008 311.904 28.8451 311.823 28.738L307.287 20.8394L311.259 16.2304C311.367 16.1232 311.313 15.9598 311.152 15.9598H307.716C307.502 15.9598 307.367 16.041 307.206 16.2304L303.475 20.8394V10.9472C303.475 10.7848 303.367 10.6772 303.207 10.6772H299.986C299.824 10.6772 299.717 10.7848 299.717 10.9472V28.738C299.717 28.9004 299.824 29.008 299.986 29.008H303.207C303.367 29.008 303.475 28.9004 303.475 28.738V25.1521L304.817 23.4812L307.716 28.738C307.823 28.9257 307.93 29.008 308.119 29.008H311.69Z" fill="black"/>
<path d="M156.906 7.5C149.234 7.5 143.891 12.75 143.891 20.5312C143.891 28.8125 149.438 33.5625 157.156 33.5625C159.062 33.5625 160.828 33.3125 162.156 32.875V30.7031C161.188 31.125 159.203 31.3906 157.266 31.3906C150.922 31.3906 146.328 27.5156 146.328 20.625C146.328 14.1875 150.672 9.65625 156.734 9.65625C162.844 9.65625 167.016 13.4219 167.016 19.1094C167.016 22.8906 165.75 25.0469 164.016 25.0469C162.891 25.0469 162.344 24.3438 162.344 23.3125V14.4375H159.703V16.3281H159.531C158.938 14.9844 157.453 14.125 155.781 14.125C152.609 14.125 150.406 16.75 150.406 20.5469C150.406 24.5156 152.594 27.1719 155.844 27.1719C157.672 27.1719 159.078 26.2969 159.734 24.7188H159.891C160.141 26.2656 161.656 27.2812 163.484 27.2812C167.203 27.2812 169.453 24.0156 169.453 19.0312C169.453 12.125 164.219 7.5 156.906 7.5ZM156.359 16.5156C158.328 16.5156 159.578 18.1094 159.578 20.625C159.578 23.1406 158.312 24.7344 156.344 24.7344C154.438 24.7344 153.281 23.1719 153.281 20.625C153.281 18.0469 154.438 16.5156 156.359 16.5156Z" fill="#B39F73"/>
<path d="M39.783 8.73896H28.4706V9.71825C31.2734 9.71825 31.6786 10.2923 31.6786 13.6691V24.0698C31.6786 27.4467 31.2734 28.0207 28.4706 28.0207V29H39.1414V28.0207C36.3387 28.0207 35.8997 27.4467 35.8997 24.0698V20.1189H39.783C43.9703 20.1189 46.6042 17.5863 46.6042 14.4458C46.6042 11.3054 43.9703 8.73896 39.783 8.73896ZM37.7569 18.5993H35.8997V10.2585H37.7569C40.6948 10.2585 42.0793 12.1496 42.0793 14.4458C42.0793 16.7421 40.6948 18.5993 37.7569 18.5993ZM59.4868 19.9501C59.4868 18.7344 58.7777 17.1811 56.4814 17.1811C55.1307 17.1811 53.5098 18.2617 52.8007 19.6124C52.6994 18.9033 52.3955 17.5187 52.2266 17.1811L46.4185 18.0253V19.0046C48.681 19.0046 49.0862 19.5786 49.0862 22.9555V24.0698C49.0862 27.4467 48.681 28.0207 46.4185 28.0207V29H55.4684V28.0207C53.2059 28.0207 52.8007 27.4467 52.8007 24.0698V23.3607C52.8007 20.6254 54.0164 19.7475 54.9619 19.7475C56.8191 19.7475 55.9412 21.9762 57.6633 21.9762C58.9128 21.9762 59.4868 20.7943 59.4868 19.9501ZM73.5615 28.122L73.0887 27.2103C72.8186 27.3791 72.4809 27.6155 72.0757 27.6155C71.6367 27.6155 71.3665 27.1765 71.3665 26.3323V21.7736C71.3665 18.5656 69.7794 17.1811 66.0311 17.1811C63.566 17.1811 61.1009 18.1941 61.1009 19.8825C61.1009 20.7943 61.7088 21.3346 62.4517 21.3346C63.1946 21.3346 63.8024 20.7943 63.8024 19.8825C63.8024 19.0046 64.8492 18.5656 65.6259 18.5656C67.0104 18.5656 67.8208 19.2747 67.8208 21.7736V21.8073C63.3972 22.4827 60.3243 23.7321 60.3243 26.6024C60.3243 28.3922 61.9451 29.439 63.566 29.439C65.0856 29.439 65.9298 28.8987 67.8208 27.4129C68.0234 28.6285 68.8677 29.3715 70.3872 29.3715C71.1977 29.3715 72.5822 28.8649 73.5615 28.122ZM67.8208 26.0284C66.6727 27.0414 65.5584 27.548 64.9843 27.548C64.3089 27.548 63.6673 27.2103 63.6673 26.1972C63.6673 24.5088 65.2207 23.8334 67.8208 23.1581V26.0284ZM80.6888 18.5318C81.2967 18.5318 81.9045 18.9033 81.9045 19.9838C81.9045 20.7267 82.5123 21.3346 83.2215 21.3346C84.3696 21.3346 84.7073 20.4566 84.7073 19.9163C84.7073 18.6331 83.2215 17.1811 80.4187 17.1811C77.0756 17.1811 74.1715 19.6799 74.1715 23.6646C74.1715 27.0414 76.7717 29.5741 80.52 29.5741C82.5123 29.5741 84.4371 28.7299 85.7203 27.3453L85.1463 26.3661C83.9306 27.4129 82.6812 27.9194 81.7357 27.9194C79.5745 27.9194 78.2913 26.3661 78.2913 23.6646C78.2913 20.5579 78.8991 18.5318 80.6888 18.5318ZM87.8499 19.2409V25.353C87.8499 27.9532 89.3357 29.4728 91.8008 29.4728C92.9489 29.4728 94.8737 28.561 95.9543 27.548L95.4815 26.5687C94.536 27.244 93.8269 27.548 93.1853 27.548C92.1385 27.548 91.6657 26.7037 91.6657 25.1166V19.2409H94.6035V17.7551H91.6657V13.5003H90.5176C90.315 15.6953 88.12 17.6876 86.0939 18.1266V19.2409H87.8499ZM106.513 29V28.0207C104.251 28.0207 103.845 27.4467 103.845 24.0698V17.1811L97.3619 18.0253V19.0046C99.6244 19.0046 100.03 19.5786 100.03 22.9555V24.0698C100.03 27.4467 99.6244 28.0207 97.3619 28.0207V29H106.513ZM104.082 11.508C104.082 10.3261 103.103 9.3468 101.921 9.3468C100.739 9.3468 99.827 10.3261 99.827 11.508C99.827 12.6899 100.739 13.7029 101.921 13.7029C103.103 13.7029 104.082 12.6899 104.082 11.508ZM113.922 18.5318C114.53 18.5318 115.138 18.9033 115.138 19.9838C115.138 20.7267 115.745 21.3346 116.455 21.3346C117.603 21.3346 117.94 20.4566 117.94 19.9163C117.94 18.6331 116.455 17.1811 113.652 17.1811C110.309 17.1811 107.405 19.6799 107.405 23.6646C107.405 27.0414 110.005 29.5741 113.753 29.5741C115.745 29.5741 117.67 28.7299 118.953 27.3453L118.379 26.3661C117.164 27.4129 115.914 27.9194 114.969 27.9194C112.808 27.9194 111.524 26.3661 111.524 23.6646C111.524 20.5579 112.132 18.5318 113.922 18.5318ZM124.046 21.267C124.383 19.6462 125.228 18.8019 126.443 18.8019C127.929 18.8019 128.638 19.8825 128.537 21.267H124.046ZM123.809 22.7528H131.137C131.88 20.4228 129.955 17.1811 126.274 17.1811C122.729 17.1811 119.757 19.7812 119.757 23.3607C119.757 26.7713 122.188 29.5741 126.578 29.5741C128.469 29.5741 130.529 28.5948 131.711 27.3453L131.137 26.3661C130.09 27.2778 128.638 27.8519 127.119 27.7506C125.126 27.6155 123.539 26.1972 123.809 22.7528Z" fill="black"/>
</svg>
