<svg width="88" height="18" viewBox="0 0 88 18" fill="none" xmlns="http://www.w3.org/2000/svg">
<path fill-rule="evenodd" clip-rule="evenodd" d="M52.7264 15.3924C52.8387 15.3924 52.9129 15.3175 52.9129 15.2043V10.9414C52.9129 10.8672 52.9514 10.829 53.026 10.829H55.2878C58.0366 10.829 59.7194 9.13907 59.7194 6.73611C59.7194 4.29568 58.0545 2.62415 55.2878 2.62415H50.3522C50.2399 2.62415 50.1653 2.69913 50.1653 2.81222V15.2043C50.1653 15.3175 50.2399 15.3924 50.3522 15.3924H52.7264ZM55.1195 8.44475H53.026C52.9514 8.44475 52.9129 8.40728 52.9129 8.33269V5.12153C52.9129 5.04622 52.9514 5.00914 53.026 5.00914H55.1195C56.2792 5.00914 56.9702 5.7027 56.9702 6.73611C56.9702 7.76877 56.2792 8.44475 55.1195 8.44475Z" fill="white"/>
<path fill-rule="evenodd" clip-rule="evenodd" d="M2.45676 2.72165C1.98521 2.74004 1.98521 3.03648 1.98521 3.19596V14.8856C2.00349 15.3588 2.29834 15.3588 2.45676 15.3588H14.0865C14.5698 15.339 14.5698 15.0443 14.5698 14.8856V3.19596C14.5515 2.72165 14.2562 2.72165 14.0975 2.72165H2.45676ZM14.0975 17.3217H2.45676C0.676305 17.3217 0.0310059 15.865 0.0310059 14.8856V3.19596C0.0310059 1.4083 1.48144 0.759521 2.45676 0.759521H14.0975C15.8787 0.759521 16.524 2.21617 16.524 3.19596V14.8856C16.524 16.6732 15.0731 17.3217 14.0975 17.3217Z" fill="white"/>
<path fill-rule="evenodd" clip-rule="evenodd" d="M35.9515 15.3808C36.0638 15.3808 36.1391 15.3059 36.1391 15.1934V6.48095C36.1391 6.36707 36.0638 6.29211 35.9515 6.29211H33.7083C33.5956 6.29211 33.521 6.36707 33.521 6.48095V15.1934C33.521 15.3059 33.5956 15.3808 33.7083 15.3808H35.9515Z" fill="white"/>
<path fill-rule="evenodd" clip-rule="evenodd" d="M35.9515 4.84603C36.0638 4.84603 36.1391 4.77108 36.1391 4.65865V2.8005C36.1391 2.68738 36.0638 2.61243 35.9515 2.61243H33.7083C33.5956 2.61243 33.521 2.68738 33.521 2.8005V4.65865C33.521 4.77108 33.5956 4.84603 33.7083 4.84603H35.9515Z" fill="white"/>
<path fill-rule="evenodd" clip-rule="evenodd" d="M24.8669 15.3807C24.9792 15.3807 25.0535 15.3058 25.0535 15.1933V10.9304C25.0535 10.8555 25.0915 10.8172 25.1665 10.8172H27.428C30.1775 10.8172 31.8596 9.12735 31.8596 6.72403C31.8596 4.28396 30.1958 2.61243 27.428 2.61243H22.4931C22.3804 2.61243 22.3062 2.68738 22.3062 2.80053V15.1933C22.3062 15.3058 22.3804 15.3807 22.4931 15.3807H24.8669ZM27.259 8.433H25.1665C25.0915 8.433 25.0535 8.39592 25.0535 8.321V5.10985C25.0535 5.03453 25.0915 4.99739 25.1665 4.99739H27.259C28.4201 4.99739 29.1112 5.69101 29.1112 6.72403C29.1112 7.7578 28.4201 8.433 27.259 8.433Z" fill="white"/>
<path fill-rule="evenodd" clip-rule="evenodd" d="M42.5311 15.4931C42.6427 15.4931 42.7169 15.4182 42.7169 15.3058V13.4461C42.7169 13.333 42.6427 13.2584 42.5311 13.2584H42.1382C41.5961 13.2584 41.3528 13.0145 41.3528 12.3955V2.80053C41.3528 2.68738 41.2789 2.61243 41.1659 2.61243H38.9216C38.8104 2.61243 38.7361 2.68738 38.7361 2.80053V12.6012C38.7361 14.61 39.5395 15.4931 41.5397 15.4931H42.5311Z" fill="white"/>
<path fill-rule="evenodd" clip-rule="evenodd" d="M48.0479 15.4931C48.1603 15.4931 48.2348 15.4182 48.2348 15.3058V13.4461C48.2348 13.333 48.1603 13.2584 48.0479 13.2584H47.6554C47.1118 13.2584 46.8696 13.0145 46.8696 12.3955V2.80053C46.8696 2.68738 46.7946 2.61243 46.6827 2.61243H44.4398C44.3264 2.61243 44.2522 2.68738 44.2522 2.80053V12.6012C44.2522 14.61 45.0577 15.4931 47.057 15.4931H48.0479Z" fill="white"/>
<path fill-rule="evenodd" clip-rule="evenodd" d="M65.7523 12.37C65.7523 13.2142 65.1919 13.6271 64.0703 13.6271C63.2092 13.6271 62.761 13.3075 62.761 12.6694C62.761 11.9563 63.2658 11.6367 64.3684 11.6367H65.6396C65.7142 11.6367 65.7523 11.6742 65.7523 11.7495V12.37ZM64.2192 6.09753C62.7237 6.09753 61.6207 6.45533 60.8536 6.99904C60.7603 7.05597 60.7417 7.14894 60.7976 7.26207L61.6394 8.74552C61.6946 8.83883 61.7886 8.85719 61.8819 8.7826C62.3122 8.46299 62.9849 8.20072 63.9013 8.20072C65.3415 8.20072 65.7523 8.59526 65.7523 9.44059V9.77785C65.7523 9.85389 65.7142 9.89094 65.6396 9.89094H64.0319C61.7886 9.89094 60.2749 10.8105 60.2749 12.8196C60.2749 14.7535 61.676 15.5991 63.2838 15.5991C64.5191 15.5991 65.3034 15.2046 65.7713 14.6036H65.7904V15.2046C65.7904 15.3177 65.8646 15.3927 65.9769 15.3927H68.0518C68.1645 15.3927 68.2391 15.3177 68.2391 15.2046V9.384C68.2391 7.11183 67.1735 6.09753 64.2192 6.09753Z" fill="white"/>
<path fill-rule="evenodd" clip-rule="evenodd" d="M74.1149 15.5992C75.6678 15.5992 76.8816 14.8857 77.5361 13.8894C77.5939 13.7957 77.5939 13.7021 77.4995 13.6271L75.8726 12.5573C75.76 12.482 75.6678 12.5001 75.5917 12.5948C75.1996 13.1385 74.8078 13.3835 74.1522 13.3835C73.4605 13.3835 72.956 13.0639 72.7508 12.4074C72.6191 12.0313 72.5818 11.5993 72.5818 10.8491C72.5818 10.0971 72.6191 9.66542 72.7508 9.28997C72.956 8.63237 73.4605 8.31423 74.1522 8.31423C74.8078 8.31423 75.1996 8.55781 75.5917 9.10189C75.6678 9.19593 75.76 9.21429 75.8726 9.13933L77.4995 8.0692C77.5939 7.99462 77.5939 7.89985 77.5361 7.80651C76.8816 6.81242 75.6678 6.09753 74.1149 6.09753C72.2072 6.09753 70.749 6.97959 70.2072 8.66981C70.0203 9.21429 69.9263 9.89097 69.9263 10.8491C69.9263 11.8057 70.0203 12.482 70.2072 13.0265C70.749 14.7164 72.2072 15.5992 74.1149 15.5992Z" fill="white"/>
<path fill-rule="evenodd" clip-rule="evenodd" d="M87.5801 15.3924C87.6913 15.3924 87.729 15.2789 87.6727 15.2043L84.5134 9.7026L87.2801 6.4922C87.3555 6.41758 87.3174 6.30373 87.2055 6.30373H84.8119C84.6631 6.30373 84.569 6.36029 84.4567 6.4922L81.8579 9.7026V2.81222C81.8579 2.69913 81.7829 2.62415 81.6714 2.62415H79.4281C79.3147 2.62415 79.2405 2.69913 79.2405 2.81222V15.2043C79.2405 15.3175 79.3147 15.3924 79.4281 15.3924H81.6714C81.7829 15.3924 81.8579 15.3175 81.8579 15.2043V12.7066L82.793 11.5428L84.8119 15.2043C84.8869 15.3351 84.9612 15.3924 85.0929 15.3924H87.5801Z" fill="white"/>
</svg>
